<?xml version="1.0" encoding="iso-8859-1"?>
<!-- Generator: Adobe Illustrator 19.0.0, SVG Export Plug-In . SVG Version: 6.00 Build 0)  -->
<svg version="1.1" id="Capa_1" xmlns="http://www.w3.org/2000/svg" xmlns:xlink="http://www.w3.org/1999/xlink" x="0px" y="0px"
	 viewBox="0 0 464 464" style="enable-background:new 0 0 464 464;" xml:space="preserve">
<path style="fill:#CCCCCC;" d="M448,432V112c0-13.255-10.745-24-24-24H40c-13.255,0-24,10.745-24,24v320H448z"/>
<path style="fill:#29ABE2;" d="M48,120h368v240H48V120z"/>
<path style="fill:#999999;" d="M464,408v24c0,13.255-10.745,24-24,24l0,0H24c-13.255,0-24-10.745-24-24l0,0v-24h160l16,16h112l16-16
	H464z"/>
<path style="fill:#F2F2F2;" d="M224,384h16v16h-16V384z"/>
<path style="fill:#DA4836;" d="M144,48h-24c-13.255,0-24,10.745-24,24v128c0,13.255,10.745,24,24,24l0,0h32l24,32l24-32h56
	c13.255,0,24-10.745,24-24l0,0v-16L144,48z"/>
<path style="fill:#FBB03B;" d="M360,184h-16l-24,32l-24-32H168c-13.255,0-24-10.745-24-24V32c0-13.255,10.745-24,24-24h192
	c13.255,0,24,10.745,24,24v128C384,173.255,373.255,184,360,184z"/>
<circle style="fill:#F2C09A;" cx="336" cy="288" r="24"/>
<path style="fill:#0071BC;" d="M336,312c17.673,0,32,14.327,32,32v16l0,0h-64l0,0v-16C304,326.327,318.327,312,336,312z"/>
<circle style="fill:#F2C09A;" cx="128" cy="288" r="24"/>
<path style="fill:#0071BC;" d="M128,312c17.673,0,32,14.327,32,32v16l0,0H96l0,0v-16C96,326.327,110.327,312,128,312z"/>
<g>
	<path style="fill:#F15A24;" d="M224,40h128v16H224V40z"/>
	<path style="fill:#F15A24;" d="M176,72h176v16H176V72z"/>
	<path style="fill:#F15A24;" d="M176,104h176v16H176V104z"/>
	<path style="fill:#F15A24;" d="M176,136h144v16H176V136z"/>
	<path style="fill:#F15A24;" d="M192,40h16v16h-16V40z"/>
</g>
<g>
</g>
<g>
</g>
<g>
</g>
<g>
</g>
<g>
</g>
<g>
</g>
<g>
</g>
<g>
</g>
<g>
</g>
<g>
</g>
<g>
</g>
<g>
</g>
<g>
</g>
<g>
</g>
<g>
</g>
</svg>
