<?xml version="1.0" standalone="no"?>
<!DOCTYPE svg PUBLIC "-//W3C//DTD SVG 20010904//EN"
 "http://www.w3.org/TR/2001/REC-SVG-20010904/DTD/svg10.dtd">
<svg version="1.0" xmlns="http://www.w3.org/2000/svg"
 width="256.000000pt" height="256.000000pt" viewBox="0 0 256.000000 256.000000"
 preserveAspectRatio="xMidYMid meet">

<g transform="translate(0.000000,256.000000) scale(0.100000,-0.100000)"
fill="#000000" stroke="none">
<path d="M559 2501 c-43 -43 -41 -93 6 -137 l35 -33 0 -103 0 -103 100 -100
100 -100 0 -117 0 -117 -59 -41 c-33 -22 -63 -44 -66 -50 -15 -24 -25 -6 -25
46 0 52 3 59 35 88 45 39 53 80 25 124 -38 61 -108 66 -155 10 -33 -39 -34
-90 0 -123 13 -14 29 -25 35 -25 6 0 10 -33 10 -87 0 -75 -3 -90 -21 -109
l-22 -23 -68 47 -68 47 -1 137 c0 129 1 137 21 143 11 4 27 22 36 40 48 100
-85 188 -159 106 -16 -17 -28 -43 -28 -57 0 -33 25 -81 50 -94 19 -10 20 -21
20 -153 l0 -142 71 -49 c39 -28 73 -54 75 -58 3 -5 -25 -42 -62 -83 l-67 -75
-69 0 c-63 0 -70 2 -96 30 -17 20 -40 33 -64 37 -33 5 -41 2 -73 -30 -47 -47
-48 -86 -1 -133 46 -46 86 -46 133 1 33 33 39 35 102 35 l66 0 68 -74 c37 -41
67 -76 67 -79 0 -2 -34 -28 -75 -57 l-75 -53 0 -139 0 -139 -36 -35 c-34 -31
-36 -37 -31 -76 7 -55 43 -88 95 -88 46 0 75 19 92 59 16 40 6 77 -30 111 -29
27 -29 28 -31 155 l-1 129 68 48 68 48 23 -22 c20 -19 23 -31 23 -100 0 -78
-1 -80 -35 -112 -47 -44 -49 -94 -6 -137 51 -51 130 -37 157 28 20 46 4 96
-37 120 -27 16 -29 22 -29 76 0 45 3 56 13 50 7 -4 41 -28 75 -52 l62 -45 0
-116 0 -115 -100 -100 -100 -100 0 -101 0 -102 -35 -35 c-46 -46 -48 -95 -6
-138 38 -38 87 -39 129 -4 55 46 49 119 -12 159 -25 16 -26 21 -26 109 l0 92
100 100 100 100 0 114 c0 97 2 112 14 102 8 -7 56 -29 108 -50 l93 -38 3 -78
c3 -70 0 -80 -20 -102 -17 -18 -30 -23 -53 -20 -98 14 -155 -94 -86 -164 41
-41 91 -40 133 1 28 28 30 36 26 80 -4 44 -2 52 24 76 26 26 28 32 28 112 l0
84 31 -6 c17 -3 47 -6 65 -6 l34 0 0 -246 0 -245 -35 -33 c-86 -81 9 -206 114
-151 59 30 64 117 10 157 l-29 22 0 248 0 248 34 0 c18 0 48 3 65 6 l31 6 0
-84 c0 -80 2 -86 28 -112 26 -24 28 -32 24 -76 -4 -44 -2 -52 26 -80 42 -41
92 -42 133 -1 69 70 7 184 -89 165 -20 -4 -33 1 -50 19 -20 22 -23 32 -20 102
l3 78 93 38 c52 21 100 43 108 50 12 10 14 -5 14 -102 l0 -114 100 -100 100
-100 0 -92 c0 -88 -1 -93 -26 -109 -61 -40 -67 -113 -12 -159 42 -35 91 -34
129 4 42 43 40 92 -6 138 l-35 35 0 102 0 101 -100 100 -100 100 0 115 0 116
62 45 c34 24 68 48 75 52 10 6 13 -5 13 -50 0 -54 -2 -60 -29 -76 -39 -23 -58
-77 -41 -118 41 -97 190 -68 190 37 0 29 -7 43 -35 70 -34 32 -35 34 -35 112
0 69 3 81 23 100 l23 22 67 -47 67 -47 0 -132 c0 -127 -1 -132 -23 -147 -80
-52 -43 -177 52 -177 55 0 90 32 98 88 5 39 3 45 -31 76 l-36 35 0 139 0 139
-75 53 c-41 29 -75 55 -75 57 0 3 30 38 67 79 l68 74 66 0 c63 0 69 -2 102
-35 47 -47 87 -47 133 -1 47 47 46 86 -1 133 -32 32 -40 35 -73 30 -24 -4 -47
-17 -64 -37 -26 -28 -33 -30 -96 -30 l-69 0 -67 75 c-37 41 -65 78 -62 83 2 4
36 30 75 58 l71 49 0 142 c0 132 1 143 20 153 25 13 50 61 50 94 0 14 -12 40
-28 57 -74 82 -207 -6 -159 -106 9 -18 25 -36 36 -40 20 -6 21 -14 21 -143
l-1 -137 -68 -47 -68 -47 -22 23 c-18 19 -21 34 -21 108 0 78 2 87 20 93 24 8
50 54 50 89 0 14 -13 40 -29 58 -61 68 -166 28 -166 -63 0 -36 6 -46 38 -74
35 -30 37 -36 37 -89 0 -52 -10 -70 -25 -46 -3 6 -33 28 -66 50 l-59 41 0 117
0 117 100 100 100 100 0 103 0 103 35 33 c47 44 49 94 6 137 -78 78 -199 -4
-157 -105 8 -20 26 -41 40 -48 25 -11 26 -14 26 -102 l0 -91 -100 -100 -100
-100 0 -117 0 -117 -82 38 c-46 21 -95 43 -110 49 -27 11 -28 14 -28 90 0 71
2 81 25 102 20 18 35 24 64 21 88 -6 137 100 75 163 -38 37 -101 37 -139 -1
-24 -25 -27 -33 -23 -80 4 -47 2 -55 -24 -80 -26 -25 -28 -32 -28 -111 l0 -85
-37 7 c-21 3 -50 6 -65 6 l-28 0 0 250 c0 239 1 250 20 260 31 17 53 67 46
106 -14 70 -106 99 -163 50 -23 -20 -28 -32 -28 -71 0 -41 4 -51 32 -74 l33
-27 0 -247 0 -247 -27 0 c-16 0 -45 -3 -65 -6 l-38 -7 0 85 c0 80 -1 86 -29
112 -27 26 -29 32 -24 80 5 46 3 54 -22 79 -38 38 -101 38 -139 1 -62 -63 -13
-169 75 -163 29 3 44 -3 64 -21 23 -21 25 -31 25 -102 0 -76 -1 -79 -27 -90
-16 -6 -65 -28 -110 -49 l-83 -38 0 116 0 116 -100 102 -100 101 0 90 c0 88 1
91 26 102 14 7 32 28 40 48 42 101 -79 183 -157 105z m99 -33 c7 -7 12 -21 12
-33 0 -47 -62 -63 -81 -21 -22 47 33 90 69 54z m656 -4 c9 -8 16 -22 16 -29 0
-20 -28 -45 -50 -45 -22 0 -50 25 -50 45 0 20 28 45 50 45 10 0 26 -7 34 -16z
m657 -5 c16 -30 -3 -69 -34 -69 -29 0 -47 17 -47 45 0 45 60 63 81 24z m-963
-311 c7 -7 12 -21 12 -33 0 -12 -5 -26 -12 -33 -28 -28 -78 -7 -78 33 0 12 5
26 12 33 7 7 21 12 33 12 12 0 26 -5 33 -12z m610 0 c7 -7 12 -21 12 -33 0
-12 -5 -26 -12 -33 -7 -7 -21 -12 -33 -12 -12 0 -26 5 -33 12 -7 7 -12 21 -12
33 0 12 5 26 12 33 7 7 21 12 33 12 12 0 26 -5 33 -12z m-1188 -169 c9 -16 8
-26 -5 -45 -19 -29 -46 -31 -70 -4 -15 17 -16 24 -7 45 15 32 66 35 82 4z
m1782 -4 c9 -21 8 -28 -7 -45 -24 -27 -51 -25 -70 4 -23 34 -5 66 36 66 22 0
32 -6 41 -25z m-1544 -162 c3 -27 -1 -35 -22 -45 -22 -9 -29 -8 -46 7 -38 35
-17 78 35 73 26 -3 30 -8 33 -35z m1306 15 c12 -20 2 -44 -27 -62 -33 -21 -69
27 -53 70 8 21 66 14 80 -8z m-489 -68 c148 -46 303 -140 452 -272 95 -84 193
-193 193 -213 0 -20 -205 -222 -290 -286 -396 -294 -724 -294 -1120 0 -85 64
-290 266 -290 286 0 20 106 136 192 213 173 153 346 250 512 288 88 20 261 12
351 -16z m-1315 -450 c11 -11 20 -24 20 -30 0 -13 -37 -50 -50 -50 -13 0 -50
37 -50 50 0 13 37 50 50 50 6 0 19 -9 30 -20z m2280 0 c11 -11 20 -24 20 -30
0 -13 -37 -50 -50 -50 -13 0 -50 37 -50 50 0 6 9 19 20 30 11 11 25 20 30 20
6 0 19 -9 30 -20z m-1792 -522 c15 -15 15 -51 0 -66 -18 -18 -56 -14 -68 7
-14 27 -13 37 6 55 18 19 45 21 62 4z m1306 -4 c19 -18 20 -28 6 -55 -20 -37
-80 -18 -80 26 0 42 44 59 74 29z m-1548 -142 c38 -26 7 -90 -39 -78 -30 7
-43 37 -27 66 11 20 45 26 66 12z m1794 -12 c27 -51 -36 -95 -72 -50 -22 27
-22 34 -2 54 22 22 61 20 74 -4z m-1202 -152 c28 -28 7 -78 -33 -78 -27 0 -45
18 -45 45 0 27 18 45 45 45 12 0 26 -5 33 -12z m610 0 c28 -28 7 -78 -33 -78
-27 0 -45 18 -45 45 0 27 18 45 45 45 12 0 26 -5 33 -12z m-950 -344 c4 -38
-18 -59 -53 -50 -15 4 -27 16 -31 31 -9 35 12 57 50 53 27 -3 31 -7 34 -34z
m652 15 c9 -16 8 -26 -5 -45 -19 -29 -46 -31 -70 -4 -15 17 -16 24 -7 45 15
32 66 35 82 4z m650 6 c31 -38 -27 -96 -65 -65 -15 13 -21 61 -8 73 12 13 60
7 73 -8z"/>
<path d="M1200 1659 c-74 -15 -145 -56 -203 -119 -75 -80 -101 -148 -101 -260
0 -121 27 -185 113 -271 86 -86 150 -113 271 -113 121 0 185 27 271 113 86 86
113 150 113 271 0 112 -27 180 -99 258 -97 106 -226 148 -365 121z m136 -50
c115 -21 202 -89 252 -198 20 -44 26 -71 26 -132 0 -66 -5 -86 -32 -142 -102
-206 -360 -256 -531 -102 -22 20 -55 66 -73 102 -59 120 -39 263 52 366 53 61
135 101 241 116 3 1 32 -4 65 -10z"/>
<path d="M1280 1467 c0 -20 6 -26 35 -31 51 -10 103 -60 117 -112 10 -37 16
-44 36 -44 23 0 24 3 19 41 -10 78 -88 156 -166 166 -39 5 -41 4 -41 -20z"/>
<path d="M865 1608 c-27 -17 -67 -44 -88 -61 -35 -27 -37 -31 -22 -47 16 -17
20 -16 96 35 44 30 85 55 91 57 10 4 -10 48 -22 48 -3 0 -27 -14 -55 -32z"/>
<path d="M660 1455 c-19 -20 -21 -27 -10 -40 17 -20 24 -19 57 9 24 20 25 26
14 40 -19 22 -34 20 -61 -9z"/>
</g>
</svg>
