<svg id="Layer_1" data-name="Layer 1" xmlns="http://www.w3.org/2000/svg" viewBox="0 0 744.04 315.56"><defs><style>.cls-1{fill:#003a51;}.cls-2{fill:#59a4b5;}.cls-3{fill:#366c75;}.cls-4{fill:#2e5d68;}.cls-5{fill:#2b5566;}.cls-6{fill:#01222b;}.cls-7{fill:#32637c;}.cls-8{fill:#a3c1d3;}.cls-9{fill:#5dafc6;}.cls-10{fill:#003547;}.cls-11{fill:none;}</style></defs><title>KYBEX_Logo</title><circle class="cls-1" cx="157.78" cy="157.78" r="157.78"/><path class="cls-2" d="M541,561.57c-9.8-11.87-20.31-24.89-32.32-40-3.1-4-4.86-4.57-7.16-4.19v25.94c0,12.25,1.24,13.4,12.37,14.25v4H478.19v-4c10.15-.85,11.3-2,11.3-14.25V489.65c0-12.63-1.15-13.49-11.66-14.25v-4.18h35.06v4.18c-10.15.76-11.39,1.71-11.39,14.25v23.94c3.09-.76,5.65-2.85,9.63-6.65,7.68-7.88,16.25-16.91,21.64-23.94,4-5,3.79-6.55-2.39-7.41l-2.82-.19v-4.18h32.58v4.18c-9.89,1-13.42,2.47-21.72,10.17-5.57,5.32-14.57,14.82-23,23.65,9.8,13,23.93,29.93,31.17,38.2,6.8,7.79,9.72,9.31,15.9,10.16v4Z" transform="translate(-148 -354.21)"/><path class="cls-3" d="M647,475.4c-9.19,1.05-11,2.85-16.07,11.31-5.92,9.5-10.16,17-16.61,29.64a15.81,15.81,0,0,0-2.29,9.12v18.24c0,11.87,1,13,13.33,13.87v4H586.9v-4c11.66-.85,12.81-1.8,12.81-13.87V526c0-2.95-.62-4.18-2.83-8.46-4.24-7.88-9.09-17-16.6-30.3-5.21-9.41-6.89-11.12-14.75-11.88v-4.18H598.3v4.18c-9.54,1.33-9,3.14-6.72,7.7,5.48,10.64,12,22,17.67,32.49,4.77-8.93,12.1-22.9,15.72-31.26,2.82-6.46,2.38-7.88-7.86-8.93v-4.18H647Z" transform="translate(-148 -354.21)"/><path class="cls-4" d="M698.8,513c13.51,1.9,23.85,8,23.85,22,0,9.31-4.77,16.53-12.54,21.09-6.81,3.9-15.81,5.51-26.32,5.51H653.41v-4c11.3-.85,12.18-1.8,12.18-13.49v-55.2c0-11.87-.62-12.73-11-13.49v-4.18h35c10.06,0,15.81,1.62,20.22,4.85,4.59,3.32,7.42,9.4,7.42,15.86,0,13.21-10.69,18.62-18.37,20.62Zm-15.19-1.8c14.31,0,20.31-6,20.31-17.48,0-10-5.21-17.86-17.22-17.86-3.18,0-6.18.76-7.33,1.71s-1.5,2.47-1.5,6.74v26.89Zm-5.74,32.49c0,10.36,2.56,13,10.86,12.92,10.34-.19,19.7-5.89,19.7-20.24,0-14-9-20.33-25.09-20.33h-5.47Z" transform="translate(-148 -354.21)"/><path class="cls-5" d="M800.54,539.05c-.88,5.23-3.44,18.06-4.59,22.52H731.12v-4c11.93-1,13.07-2.28,13.07-13.68V489.46c0-12.73-1.14-13.11-11.39-14.06v-4.18h59.88c.18,3.61.71,12.83,1.24,20.62l-4.07.57a39.9,39.9,0,0,0-4.32-12.07c-1.95-3-5.57-4-14.66-4h-9.81c-4.32,0-4.59.38-4.59,4.56v31.16h12.1c11.83,0,12.72-1.14,14.4-10.54h4v27.26h-4c-1.86-10.16-2.83-10.92-14.4-10.92h-12.1v25.55c0,6.56.71,9.7,3.18,11.41s7.51,1.61,13.51,1.61c9.63,0,13.6-1,16.61-4.56a49.37,49.37,0,0,0,6.71-13.39Z" transform="translate(-148 -354.21)"/><path class="cls-6" d="M855.56,561.57v-4c8.3-1.23,9-2.66,6.63-7.12-3-4.85-8.66-14.63-17.4-28.88-6.72,10.63-12.1,19.75-16.08,27.26-3.26,6.08-2.74,7.32,6.27,8.74v4H804v-4c7.51-1,12-3,15.81-8.08,3.54-4.37,10.69-14.53,22-32.58-6.89-11.5-13.07-21.66-17.92-29.64-5.75-9-7.86-10.83-17.4-11.88v-4.18h33.91v4.18c-8,1.05-7.77,2.47-6,5.89,4.15,7.32,9,15.11,14.92,24.51,5.65-8.74,9.54-15.2,13.07-21.75,3.09-6.08,2.65-7.41-6.27-8.65v-4.18h31v4.18c-9.8,1.05-12.63,2.76-18.63,10.74-3.1,4-7.69,10.92-16.34,24.22,7.42,12.07,14.75,23.94,21.37,34.3,6,9.69,9.27,12,18.55,12.92v4Z" transform="translate(-148 -354.21)"/><circle class="cls-7" cx="157.86" cy="157.72" r="155.46"/><path class="cls-8" d="M306.08,356.48a155.46,155.46,0,1,1,0,310.92" transform="translate(-148 -354.21)"/><path class="cls-9" d="M181.89,583l9.91-16.4a120.81,120.81,0,0,1-12.4-46.15H162.54A136.76,136.76,0,0,0,181.89,583Z" transform="translate(-148 -354.21)"/><path class="cls-9" d="M193.46,455.21l-9.7-16.8A136.56,136.56,0,0,0,162.54,504h16.91A120.73,120.73,0,0,1,193.46,455.21Z" transform="translate(-148 -354.21)"/><path class="cls-9" d="M179.45,504H162.54c-.16,2.73-.25,5.47-.25,8.24s.09,5.51.25,8.23H179.4c-.17-2.61-.25-5.26-.25-7.92Q179.15,508.2,179.45,504Z" transform="translate(-148 -354.21)"/><path class="cls-9" d="M286.83,651.68a134.38,134.38,0,0,1-16-2V572.52l16-20.2Z" transform="translate(-148 -354.21)"/><path class="cls-9" d="M212.71,504H179.45q-.3,4.24-.3,8.55c0,2.66.08,5.31.25,7.92h42.88l-13.83-11.23Z" transform="translate(-148 -354.21)"/><polygon class="cls-9" points="89.54 149.74 79.94 149.74 89.54 157.54 89.54 149.74"/><path class="cls-9" d="M273.37,463.26a122.22,122.22,0,0,1,5,15.93l8.48-6.69V375.33a136.57,136.57,0,0,0-16,2.44v87.48Z" transform="translate(-148 -354.21)"/><path class="cls-9" d="M286.83,558.48H270.94l-.22-.17v86.12a137.78,137.78,0,0,0,16.11,2.46V558.48Z" transform="translate(-148 -354.21)"/><polygon class="cls-9" points="89.97 157.89 89.69 158.11 89.72 158.15 89.54 158.29 89.54 166.21 74.28 166.21 122.72 205.55 122.72 184.49 89.97 157.89"/><polygon class="cls-9" points="138.84 205.73 138.84 197.77 137.94 196.84 122.72 184.49 122.72 205.55 122.94 205.73 138.84 205.73"/><polygon class="cls-9" points="89.54 158.29 81.47 151.75 77.36 156.81 72.56 150.6 73.67 149.74 64.71 149.74 60.46 154.98 74.28 166.21 89.54 166.21 89.54 158.29"/><polygon class="cls-9" points="89.54 158.29 89.72 158.15 89.69 158.11 89.97 157.89 89.54 157.54 89.54 158.29"/><polygon class="cls-9" points="79.94 149.74 76.88 147.26 73.67 149.74 79.94 149.74"/><polygon class="cls-9" points="79.94 149.74 73.67 149.74 72.56 150.6 77.36 156.81 81.47 151.75 89.54 158.29 89.54 157.54 79.94 149.74"/><polygon class="cls-9" points="122.94 205.73 138.84 218.64 138.84 205.73 122.94 205.73"/><polygon class="cls-9" points="81.67 164 71.23 150.26 128.92 106.44 138.84 118.58 81.67 164"/><circle class="cls-10" cx="41.76" cy="91.55" r="12.59"/><circle class="cls-10" cx="130.89" cy="23.35" r="12.59"/><circle class="cls-10" cx="130.89" cy="292.1" r="12.59"/><circle class="cls-9" cx="130.89" cy="292.67" r="3.04"/><rect class="cls-10" x="279.12" y="386.89" width="0.43" height="82.55" transform="translate(410.68 502.12) rotate(180)"/><rect class="cls-10" x="251.25" y="455.39" width="0.44" height="70.21" transform="translate(-134.96 633.26) rotate(-127.23)"/><rect class="cls-10" x="251.13" y="498.13" width="0.43" height="70.73" transform="translate(-470.89 44.98) rotate(-51.61)"/><rect class="cls-10" x="130.66" y="201.08" width="0.54" height="82.04"/><rect class="cls-10" x="197.27" y="485.17" width="0.52" height="52.88" transform="translate(-462.08 354.92) rotate(-90)"/><path class="cls-10" d="M189,563.84a12.56,12.56,0,0,0-7.35,1.75c1.28,3.11,2.68,6.17,4.17,9.16a3,3,0,0,1,2.26-1,3,3,0,0,1,.38,6q1.08,2,2.22,3.88l-.25.41q-1.26-2.12-2.46-4.27a3,3,0,0,1-2.45-4.62q-2.29-4.56-4.27-9.31a12.59,12.59,0,1,0,7.75-2Z" transform="translate(-148 -354.21)"/><path class="cls-9" d="M185.09,576.74a3,3,0,0,0,2.89,3c-.84-1.53-1.66-3.06-2.45-4.62A3,3,0,0,0,185.09,576.74Z" transform="translate(-148 -354.21)"/><path class="cls-10" d="M171.64,521.59v-.08h-.54a137.1,137.1,0,0,0,10.17,44.34l.4-.26A136.57,136.57,0,0,1,171.64,521.59Z" transform="translate(-148 -354.21)"/><path class="cls-10" d="M188,579.78q1.2,2.16,2.46,4.27l.25-.41q-1.14-1.92-2.22-3.88l-.35,0Z" transform="translate(-148 -354.21)"/><path class="cls-10" d="M185.83,574.75c-1.49-3-2.89-6-4.17-9.16l-.4.26q2,4.74,4.27,9.31A3.91,3.91,0,0,1,185.83,574.75Z" transform="translate(-148 -354.21)"/><path class="cls-10" d="M192.59,443.2l-.28-.47A125.49,125.49,0,0,0,171.09,505h.55A125.58,125.58,0,0,1,192.59,443.2Z" transform="translate(-148 -354.21)"/><path class="cls-10" d="M171.39,513.36c0-2.77.08-5.51.24-8.24V505h-.55c-.16,2.72-.24,5.47-.24,8.23s.08,5.51.24,8.24h.54C171.47,518.81,171.39,516.1,171.39,513.36Z" transform="translate(-148 -354.21)"/><path class="cls-9" d="M191.16,576.6a3.08,3.08,0,0,0-3.07-2.89,3,3,0,0,0-2.26,1q1.28,2.54,2.64,5A3,3,0,0,0,191.16,576.6Z" transform="translate(-148 -354.21)"/><circle class="cls-9" cx="41.76" cy="91.55" r="3.04"/><circle class="cls-9" cx="39.98" cy="222.52" r="3.04"/><circle class="cls-9" cx="130.78" cy="23.35" r="3.04"/><path class="cls-10" d="M321.34,374.29V648.68a138.76,138.76,0,0,0,16.05-1.95V376.24A138.76,138.76,0,0,0,321.34,374.29Z" transform="translate(-148 -354.21)"/><rect class="cls-10" x="173.92" y="152.43" width="66.55" height="16.47"/><path class="cls-11" d="M415.09,441V582a124.35,124.35,0,0,0,0-141Z" transform="translate(-148 -354.21)"/><path class="cls-10" d="M392.83,515.19l41-31.71a123.6,123.6,0,0,0-5.16-16.82l-52.82,40.85,4.81,6.21,4.1-5.07Z" transform="translate(-148 -354.21)"/><path class="cls-10" d="M392.83,515.19l-6.91,5.35-5.27-6.82-6.27,7.73,51.41,41.65a122.72,122.72,0,0,0,6.1-16.25Z" transform="translate(-148 -354.21)"/><polygon class="cls-10" points="244.83 160.98 236.75 154.44 232.65 159.51 237.92 166.32 244.83 160.98"/><path class="cls-10" d="M415.09,419.79V441a124,124,0,0,1,13.57,25.65l10.81-8.37A137.73,137.73,0,0,0,415.09,419.79Z" transform="translate(-148 -354.21)"/><path class="cls-10" d="M415.09,582v21.22a137.92,137.92,0,0,0,21.23-31.55l-10.53-8.53A123.54,123.54,0,0,1,415.09,582Z" transform="translate(-148 -354.21)"/><path class="cls-10" d="M445.17,474.71a136.61,136.61,0,0,0-5.7-16.42l-10.81,8.37a123.6,123.6,0,0,1,5.16,16.82Z" transform="translate(-148 -354.21)"/><path class="cls-10" d="M431.89,546.85a122.72,122.72,0,0,1-6.1,16.25l10.53,8.53a134.87,134.87,0,0,0,6.54-15.89Z" transform="translate(-148 -354.21)"/><circle class="cls-9" cx="181.36" cy="24.09" r="12.59"/><circle class="cls-9" cx="181.36" cy="293.65" r="12.59"/><circle class="cls-9" cx="264.89" cy="240.05" r="12.59"/><circle class="cls-9" cx="267.53" cy="75.49" r="12.59"/><circle class="cls-9" cx="184.4" cy="32.07" r="3.04"/><circle class="cls-10" cx="181.36" cy="23.18" r="3.04"/><circle class="cls-10" cx="181.36" cy="294.34" r="3.04"/><circle class="cls-10" cx="267.56" cy="75.49" r="3.04"/><circle class="cls-10" cx="264.99" cy="240.66" r="3.04"/><rect class="cls-1" x="157.22" y="2.26" width="2.29" height="313.23"/></svg>