<?xml version="1.0" encoding="UTF-8"?>
<svg xmlns="http://www.w3.org/2000/svg" xmlns:xlink="http://www.w3.org/1999/xlink" width="300pt" height="300pt" viewBox="0 0 300 300" version="1.1">
<defs>
<filter id="alpha" filterUnits="objectBoundingBox" x="0%" y="0%" width="100%" height="100%">
  <feColorMatrix type="matrix" in="SourceGraphic" values="0 0 0 0 1 0 0 0 0 1 0 0 0 0 1 0 0 0 1 0"/>
</filter>
<mask id="mask0">
  <g filter="url(#alpha)">
<rect x="0" y="0" width="300" height="300" style="fill:rgb(0%,0%,0%);fill-opacity:0.301961;stroke:none;"/>
  </g>
</mask>
<clipPath id="clip1">
  <rect x="0" y="0" width="300" height="300"/>
</clipPath>
<g id="surface5" clip-path="url(#clip1)">
<path style=" stroke:none;fill-rule:nonzero;fill:rgb(34.509804%,34.117647%,38.823529%);fill-opacity:1;" d="M 184.050781 216.300781 L 115.949219 216.300781 C 108.449219 216.300781 102.449219 210.148438 102.449219 202.800781 L 102.449219 88.800781 C 102.449219 81.300781 108.601562 75.300781 115.949219 75.300781 L 184.050781 75.300781 C 191.550781 75.300781 197.550781 81.449219 197.550781 88.800781 L 197.550781 202.800781 C 197.550781 210.300781 191.550781 216.300781 184.050781 216.300781 Z M 115.949219 80.699219 C 111.449219 80.699219 107.851562 84.300781 107.851562 88.800781 L 107.851562 202.800781 C 107.851562 207.300781 111.449219 210.898438 115.949219 210.898438 L 184.050781 210.898438 C 188.550781 210.898438 192.148438 207.300781 192.148438 202.800781 L 192.148438 88.800781 C 192.148438 84.300781 188.550781 80.699219 184.050781 80.699219 Z M 115.949219 80.699219 "/>
</g>
<mask id="mask1">
  <g filter="url(#alpha)">
<rect x="0" y="0" width="300" height="300" style="fill:rgb(0%,0%,0%);fill-opacity:0.301961;stroke:none;"/>
  </g>
</mask>
<clipPath id="clip2">
  <rect x="0" y="0" width="300" height="300"/>
</clipPath>
<g id="surface8" clip-path="url(#clip2)">
<path style=" stroke:none;fill-rule:nonzero;fill:rgb(34.509804%,34.117647%,38.823529%);fill-opacity:1;" d="M 181.050781 197.101562 L 118.949219 197.101562 C 114.449219 197.101562 110.851562 193.5 110.851562 189 L 110.851562 102.601562 C 110.851562 98.101562 114.449219 94.5 118.949219 94.5 L 181.050781 94.5 C 185.550781 94.5 189.148438 98.101562 189.148438 102.601562 L 189.148438 188.851562 C 189.148438 193.351562 185.550781 197.101562 181.050781 197.101562 Z M 118.949219 99.898438 C 117.449219 99.898438 116.25 101.101562 116.25 102.601562 L 116.25 188.851562 C 116.25 190.351562 117.449219 191.550781 118.949219 191.550781 L 181.050781 191.550781 C 182.550781 191.550781 183.75 190.351562 183.75 188.851562 L 183.75 102.601562 C 183.75 101.101562 182.550781 99.898438 181.050781 99.898438 Z M 118.949219 99.898438 "/>
</g>
<mask id="mask2">
  <g filter="url(#alpha)">
<rect x="0" y="0" width="300" height="300" style="fill:rgb(0%,0%,0%);fill-opacity:0.301961;stroke:none;"/>
  </g>
</mask>
<clipPath id="clip3">
  <rect x="0" y="0" width="300" height="300"/>
</clipPath>
<g id="surface11" clip-path="url(#clip3)">
<path style=" stroke:none;fill-rule:nonzero;fill:rgb(34.509804%,34.117647%,38.823529%);fill-opacity:1;" d="M 140.25 201.601562 L 159.601562 201.601562 L 159.601562 207 L 140.25 207 Z M 140.25 201.601562 "/>
</g>
</defs>
<g id="surface1">
<use xlink:href="#surface5" mask="url(#mask0)"/>
<use xlink:href="#surface8" mask="url(#mask1)"/>
<use xlink:href="#surface11" mask="url(#mask2)"/>
<path style=" stroke:none;fill-rule:nonzero;fill:rgb(30.980392%,75.686275%,91.764706%);fill-opacity:1;" d="M 154.199219 161.699219 C 151.949219 159.449219 148.199219 159.449219 145.800781 161.699219 L 141.898438 157.800781 C 146.25 153.449219 153.449219 153.449219 157.949219 157.800781 Z M 154.199219 161.699219 "/>
<path style=" stroke:none;fill-rule:nonzero;fill:rgb(30.980392%,75.686275%,91.764706%);fill-opacity:1;" d="M 163.050781 152.851562 C 155.851562 145.648438 144.148438 145.648438 136.949219 152.851562 L 133.050781 148.949219 C 142.351562 139.648438 157.5 139.648438 166.800781 148.949219 Z M 163.050781 152.851562 "/>
<path style=" stroke:none;fill-rule:nonzero;fill:rgb(30.980392%,75.686275%,91.764706%);fill-opacity:1;" d="M 127.800781 143.699219 L 123.898438 139.800781 C 138.300781 125.398438 161.699219 125.398438 176.101562 139.800781 L 172.199219 143.699219 C 160.050781 131.398438 139.949219 131.398438 127.800781 143.699219 Z M 127.800781 143.699219 "/>
</g>
</svg>
