<svg id="Capa_1" enable-background="new 0 0 511.999 511.999" height="512" viewBox="0 0 511.999 511.999" width="512" xmlns="http://www.w3.org/2000/svg"><g><path d="m501.03 347.251-133.03 135.55h-197.45l-85.55-28.92-20.667.34v-123.5l20.667-.25c17.6-20.47 43.69-33.46 72.81-33.46 29.13 0 55.21 12.99 72.81 33.46h94c9.9 0 18.86 4.02 25.35 10.5 6.49 6.5 10.5 15.46 10.5 25.36 0 5.12-1.08 10-3.02 14.41-5.56 12.6-18.17 21.44-32.83 21.44h-86.62v30h86.62c36.31 0 65.85-29.54 65.85-65.83l.01-15.61 61.52-55.88c14.18-12.87 35.96-12.34 49.5 1.2 14.18 14.19 13.97 37.26-.47 51.19z" fill="#f9c4b9"/><path d="m324.62 402.181h-15.44v-71.71h15.44c9.9 0 18.86 4.02 25.35 10.5 6.49 6.5 10.5 15.46 10.5 25.36 0 5.12-1.08 10-3.02 14.41-5.56 12.6-18.17 21.44-32.83 21.44z" fill="#ffb19e"/><path d="m501.03 347.251-133.03 135.55h-58.82v-50.62h15.44c36.31 0 65.85-29.54 65.85-65.83l.01-15.61 61.52-55.88c14.18-12.87 35.96-12.34 49.5 1.2 14.18 14.19 13.97 37.26-.47 51.19z" fill="#ffb19e"/><path d="m57 482.799h-57v-203.129h57c15.464 0 28 12.536 28 28v147.129c0 15.464-12.536 28-28 28z" fill="#60e2f4"/><path d="m393.665 90.468v71.74c0 25.46-8.74 49.24-23.67 68.14s-36.05 32.9-60.82 38.79c-49.53-11.77-84.49-56.02-84.49-106.93v-71.74l84.49-44.33z" fill="#92ca32"/><path d="m393.665 90.468v71.74c0 25.46-8.74 49.24-23.67 68.14s-36.05 32.9-60.82 38.79v-223z" fill="#67b821"/><path d="m309.176 29.198-99.49 52.2v80.81c0 27.99 9.55 55.49 26.9 77.44 17.35 21.96 41.9 37.62 69.12 44.09l3.47.82 3.47-.82c27.22-6.47 51.77-22.13 69.12-44.09 17.35-21.95 26.9-49.45 26.9-77.44v-80.81zm69.489 133.01c0 42.96-28.4 80.06-69.49 91.45-41.09-11.39-69.49-48.49-69.49-91.45v-62.67l69.49-36.46 69.49 36.46z" fill="#badb47"/><path d="m408.665 81.398v80.81c0 27.99-9.55 55.49-26.9 77.44-17.35 21.96-41.9 37.62-69.12 44.09l-3.47.82v-30.9c41.09-11.39 69.49-48.49 69.49-91.45v-62.67l-69.49-36.46v-33.88z" fill="#92ca32"/><path d="m357.845 145.248-48.669 48.68-7.861 7.86-40.75-40.21 21.08-21.35 19.531 19.27 8-8 27.459-27.46z" fill="#f3f6ff"/><path d="m357.845 145.248-48.669 48.68v-42.43l27.459-27.46z" fill="#cddbf9"/></g></svg>